<svg id="Capa_1" data-name="Capa 1" xmlns="http://www.w3.org/2000/svg" viewBox="0 0 512 399"><defs><style>.cls-1{fill:#68c4f2;}</style></defs><title>mail</title><path class="cls-1" d="M467,4.11H45a45.08,45.08,0,0,0-45,45v300a45.07,45.07,0,0,0,45,45H467a45.07,45.07,0,0,0,45-45v-300A45.07,45.07,0,0,0,467,4.11Zm-6.21,30L257,237.94,51.36,34.11ZM30,342.9V55.18L174.48,198.42Zm21.21,21.21L195.78,219.54l50.66,50.22a15,15,0,0,0,21.17,0L317,220.32,460.79,364.11ZM482,342.9,338.21,199.11,482,55.32Z"/></svg>