<svg id="Capa_1" data-name="Capa 1" xmlns="http://www.w3.org/2000/svg" viewBox="0 0 375 512"><defs><style>.cls-1{fill:#68c4f2;}</style></defs><title>map</title><path class="cls-1" d="M187,0C87.75,0,7,80.75,7,180a179.62,179.62,0,0,0,26.87,94.65L176.75,504.91A15,15,0,0,0,189.5,512h.12a15,15,0,0,0,12.75-7.29L341.61,272.22A179.78,179.78,0,0,0,367,180C367,80.75,286.25,0,187,0ZM315.87,256.82,189.27,468.19,59.37,258.85A149.79,149.79,0,0,1,36.8,180C36.8,97.29,104.29,29.8,187,29.8S337.1,97.29,337.1,180A149.9,149.9,0,0,1,315.87,256.82Z"/><path class="cls-1" d="M187,90a90,90,0,1,0,90,90A90.1,90.1,0,0,0,187,90Zm0,150.2A60.2,60.2,0,1,1,247.1,180,60.24,60.24,0,0,1,187,240.2Z"/></svg>