<svg id="Capa_1" data-name="Capa 1" xmlns="http://www.w3.org/2000/svg" viewBox="0 0 512 512"><defs><style>.cls-1{fill:#68c4f2;}</style></defs><title>tlf</title><path class="cls-1" d="M474,379.74l-63.35-65.55-.18-.18a45,45,0,0,0-63.64,0l-28.92,28.92a34.08,34.08,0,0,1-48.21,0l0,0L169.05,244.7a34.07,34.07,0,0,1,0-48.21L198,167.57a45,45,0,0,0,0-63.64L134.34,40.3a45,45,0,0,0-63.64,0L49.49,61.51l-1.92,1.93a162.16,162.16,0,0,0,0,229.48L221.45,464.41a162.16,162.16,0,0,0,229.25.23c.35-.32,22.83-21,23.16-21.36A45,45,0,0,0,474,379.74ZM91.92,61.51a15,15,0,0,1,21.21,0l63.63,63.63a15,15,0,0,1,0,21.21L166.16,157,81.31,72.11ZM242.65,443.19,68.78,271.7a132.17,132.17,0,0,1-8.28-178l84.55,84.54a64.16,64.16,0,0,0,2.81,87.66l100.61,98.23a64,64,0,0,0,87.62,2.77l84.54,84.55A131.87,131.87,0,0,1,242.65,443.19Zm210.18-21.31-10.08,9.29L357.4,345.82l10.6-10.6a15,15,0,0,1,21.14-.08l63.51,65.71A15,15,0,0,1,452.83,421.88Z"/><path class="cls-1" d="M257,0a15,15,0,1,0,0,30C381.08,30,482,131,482,255a15,15,0,0,0,30,0C512,114.07,398,0,257,0Z"/><path class="cls-1" d="M257,60a15,15,0,1,0,0,30c91,0,165,74,165,165a15,15,0,0,0,30,0C452,147.49,364.54,60,257,60Z"/><path class="cls-1" d="M257,120a15,15,0,1,0,0,30A105.11,105.11,0,0,1,362,255a15,15,0,0,0,30,0C392,180.57,331.45,120,257,120Z"/><path class="cls-1" d="M257,180a15,15,0,1,0,0,30,45.05,45.05,0,0,1,45,45,15,15,0,1,0,30,0A75.07,75.07,0,0,0,257,180Z"/></svg>